<svg width="16" height="20" viewBox="0 0 16 20" fill="none" xmlns="http://www.w3.org/2000/svg">
<path fill-rule="evenodd" clip-rule="evenodd" d="M7.64689 9.89797L1 20L11.2044 8.26533L6.61711 7.95917L12.5151 0L3.15323 9.38775L7.64689 9.89797Z" fill="white"/>
<path d="M7.59925 1C7.59925 1 8.05798 2.08 10.7737 3.16C13.3976 4.22 15.1591 3.94 15.1591 3.94C15.1591 3.94 15.6546 8.02 13.2692 12.74C10.8838 17.46 7.59925 19 7.59925 19C7.59925 19 4.29639 17.48 1.92935 12.76C-0.437702 8.04 0.0393767 3.96 0.0393767 3.96C0.0393767 3.96 1.8009 4.22 4.42484 3.18C7.14052 2.08 7.59925 1 7.59925 1Z" fill="white"/>
<mask id="mask0" mask-type="alpha" maskUnits="userSpaceOnUse" x="0" y="1" width="16" height="18">
<path d="M7.59925 1C7.59925 1 8.05798 2.08 10.7737 3.16C13.3976 4.22 15.1591 3.94 15.1591 3.94C15.1591 3.94 15.6546 8.02 13.2692 12.74C10.8838 17.46 7.59925 19 7.59925 19C7.59925 19 4.29639 17.48 1.92935 12.76C-0.437702 8.04 0.0393767 3.96 0.0393767 3.96C0.0393767 3.96 1.8009 4.22 4.42484 3.18C7.14052 2.08 7.59925 1 7.59925 1Z" fill="white"/>
</mask>
<g mask="url(#mask0)">
<path fill-rule="evenodd" clip-rule="evenodd" d="M7.64689 9.89797L1 20L11.2044 8.26533L6.61711 7.95917L12.5151 0L3.15323 9.38775L7.64689 9.89797Z" fill="#444444"/>
</g>
</svg>
