<svg width="24" height="22" viewBox="0 0 24 22" fill="none" xmlns="http://www.w3.org/2000/svg">
<path d="M11.1149 4.71606L12 6.39959L12.8851 4.71606C13.9421 2.70564 15.551 1.45312 17.625 1.45312C20.6708 1.45312 23 4.00896 23 7.32102C23 9.44539 22.007 11.2401 20.0469 13.3068C18.6792 14.7488 16.935 16.2317 14.8617 17.9943C13.9677 18.7543 13.0125 19.5663 12 20.4496C10.9882 19.567 10.0335 18.7554 9.13982 17.9957C7.06768 16.2341 5.32351 14.7514 3.95544 13.309C1.99439 11.2415 1 9.4455 1 7.32102C1 4.00846 3.32953 1.45312 6.375 1.45312C8.44893 1.45312 10.0578 2.70551 11.1149 4.71606Z" stroke="#FF1E1E" stroke-width="2"/>
</svg>
